<svg width="166" height="166" xmlns="http://www.w3.org/2000/svg" xmlns:xlink="http://www.w3.org/1999/xlink" xml:space="preserve" overflow="hidden"><g transform="translate(-1879 -624)"><path d="M2045 707C2045 752.84 2007.84 790 1962 790 1916.16 790 1879 752.84 1879 707 1879 661.16 1916.16 624 1962 624 2007.84 624 2045 661.16 2045 707Z" fill="#8BAAC9"/><path d="M1902.58 715.498 1896.98 715.498 1896.98 692.173 1902.58 692.173ZM1913.88 692.173 1919.08 708.402 1924.27 692.173 1931.68 692.173 1931.68 715.498 1926.04 715.498 1926.04 710.052 1926.58 698.902 1920.94 715.498 1917.23 715.498 1911.57 698.886 1912.12 710.052 1912.12 715.498 1906.49 715.498 1906.49 692.173ZM1951.19 715.498 1934.91 715.498 1934.91 711.974 1942.41 704.092C1944.26 701.988 1945.18 700.317 1945.18 699.079 1945.18 698.074 1944.96 697.312 1944.52 696.787 1944.08 696.264 1943.45 696.003 1942.62 696.003 1941.79 696.003 1941.13 696.355 1940.61 697.059 1940.1 697.753 1939.85 698.625 1939.85 699.671L1934.43 699.671C1934.43 698.24 1934.79 696.921 1935.5 695.714 1936.22 694.497 1937.21 693.547 1938.48 692.863 1939.75 692.18 1941.17 691.838 1942.74 691.838 1945.27 691.838 1947.2 692.419 1948.56 693.583 1949.93 694.747 1950.61 696.42 1950.61 698.599 1950.61 699.517 1950.44 700.414 1950.1 701.289 1949.76 702.154 1949.22 703.068 1948.5 704.029 1947.78 704.979 1946.62 706.254 1945.02 707.857L1942.01 711.333 1951.19 711.333ZM1954.25 715.498 1954.25 692.173 1961.76 692.173C1963.82 692.173 1965.67 692.643 1967.32 693.583 1968.96 694.513 1970.25 695.832 1971.16 697.541 1972.09 699.238 1972.56 701.144 1972.57 703.26L1972.57 704.333C1972.57 706.469 1972.12 708.385 1971.21 710.084 1970.31 711.771 1969.04 713.095 1967.4 714.056 1965.76 715.008 1963.94 715.488 1961.92 715.498ZM1959.87 696.516 1959.87 711.173 1961.82 711.173C1963.44 711.173 1964.68 710.602 1965.54 709.459 1966.41 708.305 1966.84 706.596 1966.84 704.333L1966.84 703.323C1966.84 701.07 1966.41 699.372 1965.54 698.23 1964.68 697.087 1963.41 696.516 1961.76 696.516ZM1983.59 715.818C1980.94 715.818 1978.78 715.028 1977.14 713.448 1975.49 711.856 1974.67 709.79 1974.67 707.249L1974.67 706.799C1974.67 705.027 1975 703.463 1975.65 702.106 1976.31 700.749 1977.27 699.703 1978.53 698.966 1979.79 698.218 1981.29 697.845 1983.02 697.845 1985.45 697.845 1987.38 698.604 1988.79 700.12 1990.19 701.626 1990.9 703.73 1990.9 706.432L1990.9 708.53 1980.17 708.53C1980.36 709.501 1980.78 710.265 1981.43 710.821 1982.08 711.376 1982.93 711.653 1983.96 711.653 1985.67 711.653 1987.01 711.055 1987.97 709.86L1990.43 712.774C1989.76 713.704 1988.81 714.447 1987.57 715.001 1986.34 715.546 1985.01 715.818 1983.59 715.818ZM1982.99 702.01C1981.41 702.01 1980.47 703.056 1980.17 705.15L1985.61 705.15 1985.61 704.733C1985.63 703.868 1985.42 703.2 1984.96 702.73 1984.5 702.25 1983.84 702.01 1982.99 702.01ZM2001.46 715.818C1998.8 715.818 1996.65 715.028 1995 713.448 1993.36 711.856 1992.53 709.79 1992.53 707.249L1992.53 706.799C1992.53 705.027 1992.86 703.463 1993.51 702.106 1994.17 700.749 1995.13 699.703 1996.39 698.966 1997.65 698.218 1999.15 697.845 2000.88 697.845 2003.31 697.845 2005.24 698.604 2006.65 700.12 2008.06 701.626 2008.76 703.73 2008.76 706.432L2008.76 708.53 1998.03 708.53C1998.22 709.501 1998.64 710.265 1999.29 710.821 1999.94 711.376 2000.79 711.653 2001.82 711.653 2003.53 711.653 2004.87 711.055 2005.83 709.86L2008.3 712.774C2007.62 713.704 2006.67 714.447 2005.43 715.001 2004.2 715.546 2002.88 715.818 2001.46 715.818ZM2000.85 702.01C1999.27 702.01 1998.33 703.056 1998.03 705.15L2003.47 705.15 2003.47 704.733C2003.5 703.868 2003.28 703.2 2002.82 702.73 2002.36 702.25 2001.7 702.01 2000.85 702.01ZM2027.02 706.96C2027.02 709.65 2026.41 711.803 2025.2 713.415 2023.99 715.018 2022.36 715.818 2020.3 715.818 2018.7 715.818 2017.4 715.237 2016.37 714.073L2016.37 722.162 2010.97 722.162 2010.97 698.165 2016.02 698.165 2016.18 699.768C2017.21 698.486 2018.58 697.845 2020.26 697.845 2022.4 697.845 2024.06 698.635 2025.25 700.216 2026.43 701.785 2027.02 703.948 2027.02 706.704ZM2021.62 706.623C2021.62 703.547 2020.73 702.01 2018.93 702.01 2017.65 702.01 2016.8 702.47 2016.37 703.388L2016.37 710.212C2016.84 711.173 2017.7 711.653 2018.96 711.653 2020.69 711.653 2021.57 710.169 2021.62 707.201Z" fill="#FFFFFF"/></g></svg>